<?xml version="1.0" encoding="UTF-8"?>
<svg id="Layer_1" xmlns="http://www.w3.org/2000/svg" version="1.1" viewBox="0 0 105.17 140">
  <!-- Generator: Adobe Illustrator 29.8.2, SVG Export Plug-In . SVG Version: 2.1.1 Build 3)  -->
  <defs>
    <style>
      .st0 {
        fill: #4db960;
      }
    </style>
  </defs>
  <path class="st0" d="M87.05,119.86H18.16c-.18-.72.3-.82.62-1.24.74-.96,8.11-8.44,8.71-8.56,15.17.37,30.55.58,45.76.33,1.77-.03,3.53-1.07,5.11.21l8.69,9.25ZM77.97,116.15c-.07-1.3-1.43-2.23-2.66-2.09H29.48c-1.22.03-2.06,1.15-2.66,2.09h51.15Z"/>
  <g>
    <path class="st0" d="M29.83,98.42c.94-.6,2.06-1.44,2.08-2.66,1.56-14.72-4.72-36.92,7.03-48.21.54-.52,5.6-3.74,4.91-4.37-8.08,2.56-13.35,11.55-14.04,19.76l-4.11.02c.59-8.49,4.81-16.51,11.83-21.36,1.48-1.02,5.47-3.6,7.15-2.76.88.44,4.27,5.43,5.76,6.19-1.83.97-3.86,1.52-5.64,2.6-5.12,3.1-8.74,9.14-9.22,15.11-.91,11.51.89,24.05-.2,35.66l-21.01,21.05-5.35.4-.23-57.92c1.12-15.81,10.69-31.12,25.17-37.92,1.21-.57,4.7-2.15,5.76-1.66l13.01,13.81,13.63-14.02c13.71,4.33,24.87,16.6,28.54,30.43,2.67,10.05.81,21.29,1.34,31.64l.02,35.64c-2.96.03-4.56.51-6.83-1.63-.74-.7-1.13-1.65-1.82-2.3-5.93-5.7-11.76-11.6-17.54-17.51-1.04-11.24.64-23.28-.2-34.43-.52-6.95-3.7-13.05-9.79-16.6-1.7-.99-3.45-1.35-5.07-2.35,1.71-1.2,4.79-6.46,6.75-6.39,1.11.04,4.12,1.63,5.17,2.3,7.15,4.57,12.52,13.41,12.41,22.02l-3.74-.18c-.89-6.94-4.23-13.54-9.99-17.64-.7-.5-3.86-2.74-4.42-1.35,18.65,10.38,10.62,34.87,12.38,52.34l2.05,2.28v-32.15h15.68c.51-16.46-8.85-32.05-24.15-38.33l-3.08,2.87c13.65,4.65,22.94,17.81,23.52,32.16l-4.52-.02c-.88-13.2-9.67-24.89-22.51-28.46l-7.83,8.28-7.92-8.17c-12.77,3.22-22.03,15.29-22.4,28.38h-4.54c.21-14.55,9.95-27.41,23.51-32.36l-3.07-2.67c-9.87,3.89-17.79,12.3-21.57,22.14-.82,2.14-2.57,7.71-2.57,9.8v6.39h15.06l.62.62v31.53ZM21.99,105.43c1.08.26,3.71-2.44,3.71-3.09v-31.33c-1.36-1.49-3.67-.18-5.16-.21-1.91-.03-4.28-.81-6.39-.41v43.69l3.3-3.5v-36.48h4.54v31.33ZM91.3,113.67v-42.66c-1.54-1.51-4.25-.2-5.98-.21-1.62,0-3.74-.82-5.57-.41v32.36l3.3,3.09v-31.74h4.54v36.07c0,.57,3.26,4.01,3.71,3.5Z"/>
    <path class="st0" d="M59.48,88.53h-13.61l2.92-14.97c-5.45-2.96-4.96-11.88,1.02-13.86,9.3-3.08,14.33,8.98,6.53,14.18l3.14,14.65Z"/>
  </g>
  <path class="st0" d="M75.09,107.9H30.12c-.18-.72.3-.82.62-1.24.62-.8,6.62-6.78,7.1-6.92l29.82.12,7.43,8.04ZM66.42,104.19c-.43-.87-1.22-1.69-2.25-1.67-7.41.6-15.87-.73-23.15,0-1.35.13-2.01.37-2.66,1.67h28.05Z"/>
  <path class="st0" d="M46.73,20.23c4-.33,3.01,1.45,5.71,3.55,3.29-2.66,4.54-5.2,9.21-2.65l-8.85,9.3-9.28-9.3c-.02-.54,2.63-.86,3.21-.91Z"/>
</svg>