<?xml version="1.0" encoding="UTF-8"?>
<svg id="Layer_1" xmlns="http://www.w3.org/2000/svg" version="1.1" viewBox="0 0 105.17 140">
  <!-- Generator: Adobe Illustrator 29.8.2, SVG Export Plug-In . SVG Version: 2.1.1 Build 3)  -->
  <defs>
    <style>
      .st0 {
        fill: #4db960;
      }
    </style>
  </defs>
  <path class="st0" d="M92.97,99.71c-3-.18-3.84-2.39-4.06-5.02-1.05-12.5.86-26.42,0-39.03-.98-14.61-12.25-27.8-26.17-31.81-.77,1.88-1.29,3.8-2.2,5.64-6.79,13.82-21.27,13.26-28.06,25.32-5.82,10.32-2.39,28.93-3.19,40.98-.52,7.84-5.29,14.7-13.02,16.79-.71.19-2.52.73-3.12.69-1.21-.08-.5-3.12-.66-4.06,7.11-.41,12.19-6.2,12.73-13.15,1.52-19.35-6.08-40.9,13.56-53.37,3.07-1.95,6.51-3.26,9.55-5.36,5.96-4.11,10.58-10.63,10.75-18.11,18.34,2.15,32.58,18.49,33.88,36.71v43.77Z"/>
  <path class="st0" d="M12.49,102.15c3.3-.07,5.35-2.31,6.17-5.35,1.48-22.91-6.33-47.57,16.24-62.34,3.87-2.53,8.67-3.96,11.87-7.36.54-.58,2.66-3.34,2.84-3.94s-.38-.41-.67-.4c-4.85.19-11.55,2.91-15.62,5.52-23.95,15.32-15.07,43.83-16.76,67.78-.13,1.31-.8,2.54-1.98,3.17-.84.44-2.13.95-2.1-.45.9-14.35-1.3-30.26.32-44.42,2.39-20.94,20.77-36.94,41.97-35.67.23,5.76-4.34,11.25-8.86,14.31-2.86,1.94-6.22,3.1-9.11,4.98-20.26,13.16-12.48,37.32-14,57.54-.43,5.73-4.32,10.53-10.31,10.69v-4.06Z"/>
  <path class="st0" d="M92.97,117.32v4.06c-11.09-.24-20.67-8.15-23.71-18.7-2.09-7.26-.88-17.4-.94-25.05-.06-8.36,1.28-17.37-6.27-23.02-10.29-7.71-23.8-.52-24.65,11.89-.68,9.99.8,20.96,0,30.9-.9,11.35-9.68,21.81-21.07,23.64-.49.08-3.17.4-3.41.32-.78-.26-.44-3.04-.33-3.78l.33-.22c8.91-.24,16.7-6.71,19.34-15.07,5.01-15.87-6.75-43.3,11.74-52.76,11.76-6.02,26.91,1.85,28.09,15.09,1.08,12.09-2.77,31.72,3.21,42.04,3.54,6.1,10.48,10.63,17.66,10.66Z"/>
  <path class="st0" d="M92.97,102.15v4.06c-5.04.01-9.01-4.15-9.9-8.93-.75-11.35.59-23.27-.12-34.56-.71-11.2-7.49-22.18-17.86-26.68l-3.01,4.45c1.99.68,3.91,1.58,5.67,2.74,18.61,12.19,11.15,35.13,12.75,53.64.54,6.26,6.11,12.02,12.47,12.32v4.06c-8.83-.6-15.89-7.87-16.54-16.65-.73-9.89.65-20.68,0-30.63-.8-12.39-10.37-22.77-23.03-23.17,4.24-3.29,8-6.94,10.19-11.94,12.52,4.48,21.49,15.97,23.11,29.19,1.43,11.71-.49,24.88.37,36.75.64,2.96,2.81,5.12,5.9,5.35Z"/>
  <path class="st0" d="M58.56,94.02h-11.38l2.31-12.73c-4.21-2.54-3.77-9.18.8-11.12,6.4-2.72,11.53,4.95,7.19,10.17-.32.38-1.03.56-1.22.95-.73,1.46,2.42,10.45,2.31,12.74Z"/>
</svg>