<?xml version="1.0" encoding="UTF-8"?>
<svg id="Layer_1" xmlns="http://www.w3.org/2000/svg" version="1.1" viewBox="0 0 400 51.48">
  <!-- Generator: Adobe Illustrator 29.8.2, SVG Export Plug-In . SVG Version: 2.1.1 Build 3)  -->
  <defs>
    <style>
      .st0 {
        fill: #4db960;
      }

      .st1 {
        fill: #fff;
      }
    </style>
  </defs>
  <g>
    <path class="st1" d="M193.75,21.23h-1.09c.03-1.23-.38-2.47-1.04-3.5-4.09-6.4-15.57-.52-6.75,4.82,2.88,1.75,9.09,3.84,9.86,7.46,1.68,7.94-8.13,9.88-13.62,7.03-2.76-1.43-3.39-3.26-3.03-6.34.1-.86.78-1.49,1.18-.6.71,1.56.38,2.93,1.95,4.5,2.93,2.92,11.44,2.73,9.94-2.93-1.03-3.88-12.01-5.62-12.76-10.87-.97-6.72,6.57-8.9,11.79-6.84,3.62,1.42,3.83,3.69,3.57,7.28Z"/>
    <path class="st1" d="M273.72,21.23l-.96-.28c-.45-3.91-3.35-6.48-7.35-5.97-3.35.43-5.27,3.71-2.54,6.25,3.92,3.64,13.16,4.44,11.89,11.89-1.17,6.88-14.76,6.12-16.27,1.56-.2-.59-.55-4.53-.16-4.81l.84-.12c.83,4.92,3.61,7.17,8.66,6.6,2.44-.28,3.94-1.99,3.38-4.48-.88-3.84-11.02-5.59-12.57-10.24-2.58-7.73,8.37-10.69,13.46-6.59.47.38,1.64,1.65,1.64,2.2v3.98Z"/>
    <path class="st1" d="M380.3,21.23l-.96-.28c-.45-3.91-3.35-6.48-7.35-5.97-3.35.43-5.27,3.71-2.54,6.25,3.92,3.64,13.16,4.44,11.89,11.89-1.17,6.88-14.76,6.12-16.27,1.56-.2-.59-.55-4.53-.16-4.81l.84-.12c.83,4.92,3.61,7.17,8.66,6.6,2.44-.28,3.94-1.99,3.38-4.48-.88-3.84-11.02-5.59-12.57-10.24-2.58-7.73,8.37-10.69,13.46-6.59.47.38,1.64,1.65,1.64,2.2v3.98Z"/>
    <path class="st1" d="M250.5,13.81c2.54.51,2.52,3.46,2.33,5.5h-.82c.18-1.74-1.37-3.85-3.16-3.85h-7.7l-.35.41c0,.11.22.21.22.27v8.38h9.62v1.65h-9.62v9.21c1.38,1.03,4.45.83,6.18.68,2.04-.17,3.65-.54,4.96-2.19.79-1,.66-2.27,2.05-1.93-.2,1.76-1.59,5.77-3.71,5.77h-12.92c-.99-1.14-.15-2.96-.13-4.25.07-4.47.28-9.9,0-14.32-.14-2.16-.19-4.65-3.04-4.25v-1.1h16.08Z"/>
    <path class="st1" d="M358.51,13.81c2.83.5,2.18,3.4,2.61,5.5h-1.08c.07-1.99-1.41-3.85-3.45-3.85h-7.15l-.41.41v8.66h9.89v1.65h-9.89v9.21c.42.49.89.62,1.51.69,2.28.27,7.4.13,9.12-1.48,1.05-.99,1.07-3.03,2.57-2.65-.2,2.07-1.47,5.77-3.98,5.77h-12.78v-21.02c0-.93-1.71-2.18-2.75-1.79v-1.09s15.8,0,15.8,0Z"/>
    <path class="st1" d="M209.92,13.58l9.24,20.85c.5,1.75,3.23,1.47,2.89,3.29-5.39.95-7.11-2.71-8.77-6.97l-10.2-.04-3.06,6.97-1.88.04c-.2-.19.62-2,.78-2.38,2.53-6.31,5.61-13.64,8.6-19.7.56-1.13.82-2.53,2.39-2.06ZM212.44,28.93l-4.26-9.9-4.26,9.9h8.52Z"/>
    <path class="st1" d="M309.41,13.58l8.97,20.3c.34.53.64,1.21,1.11,1.64.9.84,2.38.67,2.06,2.2-3.12.26-5.13-.23-6.82-2.94-.52-.84-1.61-3.97-2.16-4.16l-10.02.13c-1,1.33-1.98,5.82-2.85,6.71-.47.49-1.43.21-2.07.27l10.2-23.74c.3-.55,1.02-.54,1.58-.4ZM311.92,28.93l-4.39-9.89-4.13,9.89h8.52Z"/>
    <path class="st1" d="M150.6,37.72c-5.73,1.02-6.84-2.97-8.97-7.11-2.93.19-6.47-.38-9.32-.05-.51.06-.59.03-.92.46-.84,1.08-2.24,6.35-3.24,6.65-.45.14-.99.04-1.46.05l10.44-24.06c.58-.31,1.19-.13,1.5.44,3.16,6.09,5.24,13.58,8.52,19.51.38.69,1.02,1.73,1.66,2.19.93.68,2.08.38,1.79,1.92ZM140.98,28.93l-4.26-9.9-4.26,9.9h8.52Z"/>
    <path class="st1" d="M163.75,13.58l8.51,19.65c1.11,2.11,1.34,1.98,3.14,3.18,1.93,1.28-1.37,1.43-2.39,1.29-3.99-.56-4.25-4.42-6.11-7.08-2.9.19-6.5-.41-9.32-.06-.3.04-.61-.02-.81.29l-2.74,6.6-2.06.27,10.19-23.75c.31-.55,1.03-.53,1.58-.39ZM166.27,28.93l-4.39-9.89-4.13,9.89h8.52Z"/>
    <path class="st1" d="M70.49,13.81c.91.16,2.47,1.44,2.94,2.28l6.96,15.86,7.85-17.7c.45-.71,1.43-.39,2.18-.43l-9.93,23.18c-1.06,2.27-1.87.2-2.49-1.02-3-5.88-5.13-13.96-8.37-19.39-.8-1.34-1.24-1.66-2.86-1.82l-.27-.96c1.21.15,2.84-.2,3.98,0Z"/>
    <path class="st1" d="M297.91,13.81v1.65h-7.97v22.26c-1.22-.17-2.9.43-3.85-.41V15.46h-3.98c-.27,0-2.05.73-2.32.98-.79.72-.81,2.03-1.09,2.98l-.85.16c.11-1.57-.44-3.89.84-5.07.11-.11,1.15-.7,1.22-.7h18Z"/>
    <path class="st1" d="M339.96,13.81v1.65h-7.56l-.41.41v21.85h-3.57V15.87c-.66-.64-2.24-.49-3.17-.42-2.69.18-4.48,1.12-4.25,4.13h-1.1c.1-1.56-.43-3.62.81-4.83.18-.17,1.44-.94,1.53-.94h17.73Z"/>
    <path class="st1" d="M109.51,13.81c.55.13,1.79,1.83,1.79,2.34v19.51l.41.41h12.5l-.41,1.65h-16.08v-20.2c0-.22-.51-1.83-.69-2.05-.55-.66-1.55-.57-2.33-.56v-1.1h4.81Z"/>
    <path class="st1" d="M95.36,13.81c.81.16,3.53-.41,3.81.45.02,3.1.1,6.22.05,9.32-.06,3.33-.84,7.99,0,11.24.43,1.65,2.97,1.69,3.01,1.94.26,1.49-3.87,1.04-4.69.84-1.13-.27-2.18-1.69-2.18-2.77V13.81Z"/>
  </g>
  <g>
    <path class="st0" d="M46.71,47.13h-29.69c-.08-.31.13-.36.27-.53.32-.41,3.5-3.64,3.76-3.69,6.54.16,13.16.25,19.72.14.76-.01,1.52-.46,2.2.09l3.74,3.99ZM42.8,45.53c-.03-.56-.61-.96-1.14-.9h-19.75c-.53.01-.89.5-1.15.9h22.05Z"/>
    <g>
      <path class="st0" d="M22.05,37.89c.4-.26.89-.62.9-1.15.67-6.34-2.04-15.91,3.03-20.77.23-.22,2.41-1.61,2.11-1.88-3.48,1.1-5.75,4.98-6.05,8.52h-1.77c.26-3.65,2.07-7.11,5.1-9.2.64-.44,2.36-1.55,3.08-1.19.38.19,1.84,2.34,2.48,2.67-.79.42-1.66.66-2.43,1.12-2.2,1.34-3.77,3.94-3.97,6.51-.39,4.96.38,10.36-.09,15.37l-9.05,9.07-2.31.17-.1-24.96c.48-6.81,4.61-13.41,10.85-16.34.52-.25,2.03-.93,2.48-.72l5.61,5.95,5.87-6.04c5.91,1.87,10.72,7.15,12.3,13.11,1.15,4.33.35,9.18.58,13.64v15.36c-1.27.01-1.96.22-2.93-.7-.32-.3-.49-.71-.78-.99-2.56-2.46-5.07-5-7.56-7.54-.45-4.84.28-10.03-.09-14.84-.23-3-1.6-5.62-4.22-7.15-.73-.43-1.49-.58-2.18-1.01.74-.52,2.07-2.78,2.91-2.75.48.02,1.78.7,2.23.99,3.08,1.97,5.4,5.78,5.35,9.49l-1.61-.08c-.38-2.99-1.82-5.83-4.3-7.6-.3-.21-1.66-1.18-1.91-.58,8.04,4.47,4.58,15.03,5.34,22.56l.88.98v-13.86h6.76c.22-7.09-3.81-13.81-10.41-16.52l-1.33,1.24c5.88,2,9.89,7.67,10.13,13.86h-1.95c-.38-5.7-4.17-10.73-9.7-12.28l-3.37,3.57-3.41-3.52c-5.5,1.39-9.49,6.59-9.65,12.23h-1.96c.09-6.27,4.29-11.81,10.13-13.95l-1.32-1.15c-4.25,1.67-7.67,5.3-9.3,9.54-.36.92-1.11,3.32-1.11,4.22v2.75h6.49l.27.27v13.59ZM18.67,40.91c.46.11,1.6-1.05,1.6-1.33v-13.5c-.59-.64-1.58-.08-2.22-.09-.82-.01-1.84-.35-2.76-.18v18.83l1.42-1.51v-15.72h1.96v13.5ZM48.54,44.46v-18.39c-.66-.65-1.83-.09-2.58-.09-.7,0-1.61-.35-2.4-.18v13.94l1.42,1.33v-13.68h1.96v15.54c0,.24,1.4,1.73,1.6,1.51Z"/>
      <path class="st0" d="M34.83,33.63h-5.87l1.26-6.45c-2.35-1.28-2.14-5.12.44-5.97,4.01-1.33,6.18,3.87,2.81,6.11l1.36,6.32Z"/>
    </g>
    <path class="st0" d="M41.55,41.98h-19.38c-.08-.31.13-.36.27-.53.27-.35,2.86-2.92,3.06-2.98l12.85.05,3.2,3.46ZM37.82,40.38c-.19-.38-.53-.73-.97-.72-3.19.26-6.84-.31-9.98,0-.58.06-.87.16-1.14.72h12.09Z"/>
    <path class="st0" d="M29.33,4.19c1.72-.14,1.3.63,2.46,1.53,1.42-1.15,1.96-2.24,3.97-1.14l-3.82,4.01-4-4.01c0-.23,1.13-.37,1.38-.39Z"/>
  </g>
</svg>